<?xml version="1.0" standalone="no"?>
<!DOCTYPE svg PUBLIC "-//W3C//DTD SVG 20010904//EN"
 "http://www.w3.org/TR/2001/REC-SVG-20010904/DTD/svg10.dtd">
<svg version="1.0" xmlns="http://www.w3.org/2000/svg"
 width="128.000000pt" height="128.000000pt" viewBox="0 0 128.000000 128.000000"
 preserveAspectRatio="xMidYMid meet">
<metadata>
Created by potrace 1.11, written by Peter Selinger 2001-2013
</metadata>
<g transform="translate(0.000000,128.000000) scale(0.100000,-0.100000)"
fill="#000000" stroke="none">
<path d="M566 1257 c-54 -30 -78 -78 -74 -146 3 -54 3 -54 -33 -66 -82 -29
-180 -108 -235 -190 -19 -27 -34 -47 -34 -43 0 12 -75 -14 -107 -38 -99 -75
-107 -225 -15 -311 19 -18 52 -38 73 -45 22 -6 40 -14 40 -17 1 -3 3 -15 4
-26 1 -11 5 -38 9 -60 4 -22 9 -53 11 -70 3 -16 10 -57 15 -90 17 -101 18
-109 19 -132 l1 -23 400 0 c374 0 400 1 401 18 0 9 2 24 4 32 2 13 23 147 41
265 12 79 17 95 31 95 22 0 86 36 110 62 106 113 39 316 -113 342 -16 3 -38
17 -49 33 -48 68 -144 151 -211 184 -67 33 -69 35 -64 64 25 130 -110 228
-224 162z"/>
</g>
</svg>
